HIERARCHY
ROOT Hips
{
	OFFSET 56.877701 -32.693596 43.373703
	CHANNELS 6 Xposition Yposition Zposition Zrotation Xrotation Yrotation
	JOINT Chest
	{
		OFFSET -0.779999 1.005800 5.403099
		CHANNELS 6 Xposition Yposition Zposition Zrotation Xrotation Yrotation
		JOINT Chest2
		{
			OFFSET 0.000000 0.000000 4.236801
			CHANNELS 6 Xposition Yposition Zposition Zrotation Xrotation Yrotation
			JOINT Neck
			{
				OFFSET 0.000000 0.000000 9.874401
				CHANNELS 6 Xposition Yposition Zposition Zrotation Xrotation Yrotation
				JOINT Head
				{
					OFFSET 0.000000 0.000002 2.173893
					CHANNELS 6 Xposition Yposition Zposition Zrotation Xrotation Yrotation
					End Site
					{
						OFFSET 0.000000 0.000000 6.508102
					}
				}
			}
			JOINT LeftCollar
			{
				OFFSET 2.681599 -0.377600 5.432499
				CHANNELS 6 Xposition Yposition Zposition Zrotation Xrotation Yrotation
				JOINT LeftShoulder
				{
					OFFSET 5.161499 0.000000 0.000000
					CHANNELS 6 Xposition Yposition Zposition Zrotation Xrotation Yrotation
					JOINT LeftElbow
					{
						OFFSET 0.000000 0.000000 -10.869099
						CHANNELS 6 Xposition Yposition Zposition Zrotation Xrotation Yrotation
						JOINT LeftWrist
						{
							OFFSET 0.000000 0.000000 -13.344799
							CHANNELS 6 Xposition Yposition Zposition Zrotation Xrotation Yrotation
							End Site
							{
								OFFSET 0.000000 0.000000 -2.173901
							}
						}
					}
				}
			}
			JOINT RightCollar
			{
				OFFSET -2.381901 -1.419600 6.136600
				CHANNELS 6 Xposition Yposition Zposition Zrotation Xrotation Yrotation
				JOINT RightShoulder
				{
					OFFSET -4.550499 0.000000 0.000000
					CHANNELS 6 Xposition Yposition Zposition Zrotation Xrotation Yrotation
					JOINT RightElbow
					{
						OFFSET 0.000000 0.000000 -11.106499
						CHANNELS 6 Xposition Yposition Zposition Zrotation Xrotation Yrotation
						JOINT RightWrist
						{
							OFFSET 0.000000 0.000000 -12.874298
							CHANNELS 6 Xposition Yposition Zposition Zrotation Xrotation Yrotation
							End Site
							{
								OFFSET 0.000000 0.000000 -2.173901
							}
						}
					}
				}
			}
		}
	}
	JOINT LeftHip
	{
		OFFSET 2.431900 0.469601 -2.489399
		CHANNELS 6 Xposition Yposition Zposition Zrotation Xrotation Yrotation
		JOINT LeftKnee
		{
			OFFSET 0.000000 -0.000004 -18.200201
			CHANNELS 6 Xposition Yposition Zposition Zrotation Xrotation Yrotation
			JOINT LeftAnkle
			{
				OFFSET 0.000000 0.000000 -16.279900
				CHANNELS 6 Xposition Yposition Zposition Zrotation Xrotation Yrotation
				End Site
				{
					OFFSET 0.000000 -8.394100 0.000000
				}
			}
		}
	}
	JOINT RightHip
	{
		OFFSET -1.987999 -0.073502 -2.713001
		CHANNELS 6 Xposition Yposition Zposition Zrotation Xrotation Yrotation
		JOINT RightKnee
		{
			OFFSET 0.000000 -0.000004 -19.547802
			CHANNELS 6 Xposition Yposition Zposition Zrotation Xrotation Yrotation
			JOINT RightAnkle
			{
				OFFSET 0.000000 0.000000 -14.881199
				CHANNELS 6 Xposition Yposition Zposition Zrotation Xrotation Yrotation
				End Site
				{
					OFFSET 0.000000 -7.922699 0.000000
				}
			}
		}
	}
}
MOTION
Frames: 4
Frame Time: 0.041667
53.669201 -33.882896 23.557507 4228.947579 20.865092 4.440327 -0.779995 1.005800 5.403096 -26.434598 -7.091227 -1.024902 0.000005 0.000003 4.236803 7.453664 -0.214871 -0.022011 0.000000 -0.000012 9.874400 -15.808186 8.608264 -5.656979 0.000000 0.000003 2.173894 -1.551926 2.170393 -2.756764 2.681607 -0.377609 5.432493 -16.569429 2.991240 -6.442143 5.161506 -0.000007 -0.000008 -181.650329 -144.698200 -205.076922 0.000008 0.000008 -10.869104 61.283544 -49.535179 96.270184 -0.000007 0.000000 -13.344796 -97.836128 6.825189 -86.669274 -2.381893 -1.419609 6.136593 11.126825 5.097762 0.562965 -4.550502 -0.000003 -0.000000 -1254.768042 -552.936926 -509.069790 0.000002 -0.000008 -11.106499 677.074248 -71.311867 653.469989 0.000006 -0.000006 -12.874300 -425.368882 10.133637 -54.658551 2.431903 0.469604 -2.489399 42.511313 -43.959442 16.043658 -0.000002 -0.000002 -18.200207 -137.161550 16.718150 128.094433 -0.000002 0.000006 -16.279905 11.456927 49.061245 49.971699 -1.988001 -0.073503 -2.713001 -47.563023 -33.911797 -38.838378 0.000002 0.000001 -19.547794 -1796.306311 138.833635 42.344386 0.000004 0.000005 -14.881197 1808.168547 64.053241 -47.320039
53.358204 -34.016193 23.664803 4227.993756 20.386218 4.423188 -0.779997 1.005794 5.403087 -27.162238 -7.294186 -1.338239 0.000002 -0.000008 4.236800 7.632152 -0.143577 -0.009818 -0.000004 -0.000004 9.874404 -16.148094 8.725948 -5.464845 -0.000001 0.000010 2.173893 -1.610825 2.114068 -2.588032 2.681594 -0.377604 5.432502 -16.955200 3.388518 -6.516016 5.161501 -0.000003 0.000002 -183.147192 -145.392707 -206.569455 0.000006 0.000005 -10.869101 59.227132 -49.334859 94.297988 0.000002 -0.000004 -13.344800 -98.052802 6.751061 -86.723725 -2.381906 -1.419601 6.136597 10.521760 5.015765 0.567334 -4.550500 0.000002 0.000000 -1256.600390 -553.587160 -506.951831 0.000005 -0.000005 -11.106496 678.698413 -71.859532 654.385999 0.000007 0.000003 -12.874303 -424.921914 10.294096 -56.539947 2.431895 0.469601 -2.489399 40.660301 -42.845729 14.125786 -0.000005 -0.000007 -18.200203 -136.123430 16.984126 128.311743 -0.000002 -0.000001 -16.279900 13.397849 48.110787 45.926325 -1.987996 -0.073507 -2.713011 -45.950962 -33.553741 -37.152479 -0.000002 -0.000001 -19.547791 -1796.352210 137.989410 42.190297 -0.000005 0.000003 -14.881197 1808.158383 63.908345 -47.521984
53.062096 -34.146893 23.758204 4227.112935 20.000515 4.372496 -0.779994 1.005795 5.403099 -27.819753 -7.549563 -1.619825 -0.000000 -0.000011 4.236801 7.765699 -0.072022 0.001749 0.000000 0.000002 9.874390 -16.296673 8.837864 -5.438244 0.000011 0.000006 2.173894 -1.814033 2.050005 -2.342063 2.681597 -0.377598 5.432496 -17.300808 3.755869 -6.525710 5.161510 -0.000001 -0.000004 -184.435858 -145.926104 -207.936763 0.000010 -0.000006 -10.869110 56.922715 -48.898284 92.254887 0.000008 0.000001 -13.344796 -98.461391 6.591207 -86.624045 -2.381907 -1.419596 6.136583 9.956555 4.927669 0.575937 -4.550508 -0.000005 -0.000005 -1258.176033 -554.363397 -504.834800 0.000001 -0.000012 -11.106498 679.711357 -72.450118 655.116337 0.000000 -0.000011 -12.874293 -424.850716 11.102484 -57.689137 2.431897 0.469608 -2.489401 38.892849 -41.797510 12.466994 0.000010 -0.000004 -18.200199 -135.030955 17.257489 128.465941 0.000005 -0.000003 -16.279900 15.327491 47.217996 42.342037 -1.987998 -0.073503 -2.713005 -44.487116 -33.262663 -35.590558 -0.000001 -0.000013 -19.547798 -1796.371225 137.192081 41.926245 -0.000002 0.000001 -14.881194 1808.387222 63.831922 -47.919262
52.781399 -34.277100 23.839602 4226.250474 19.662658 4.337819 -0.779997 1.005799 5.403096 -28.279635 -7.793179 -1.861485 0.000002 0.000004 4.236800 7.771705 -0.016047 0.010367 0.000003 -0.000003 9.874401 -16.713598 8.977661 -5.245987 -0.000001 -0.000001 2.173893 -1.753289 2.039500 -2.259601 2.681601 -0.377598 5.432500 -17.581149 4.117809 -6.507757 5.161506 0.000000 -0.000006 -185.467134 -146.242888 -209.142455 -0.000008 0.000003 -10.869111 54.362480 -48.300342 90.166666 0.000002 -0.000002 -13.344793 -98.889214 6.467543 -86.578699 -2.381895 -1.419603 6.136592 9.406423 4.742614 0.604024 -4.550499 0.000005 0.000003 -1260.030675 -554.879323 -502.523628 0.000004 -0.000011 -11.106497 681.002536 -72.881274 655.706466 0.000001 0.000000 -12.874293 -424.020029 11.534723 -59.003081 2.431902 0.469601 -2.489394 37.269767 -40.790498 11.010720 -0.000005 0.000001 -18.200199 -133.939190 17.537609 128.574759 0.000003 -0.000004 -16.279898 17.146922 46.182649 39.386190 -1.988000 -0.073502 -2.712999 -43.144290 -32.984404 -34.150321 -0.000001 -0.000003 -19.547794 -1796.447723 136.597500 41.669516 0.000002 0.000007 -14.881199 1808.443284 63.687293 -48.029641
